<svg width="25" height="25" viewBox="0 0 25 25" fill="none" xmlns="http://www.w3.org/2000/svg">
<path d="M7.07291 24.9999C5.92808 24.9999 5 24.0718 5 22.927V22.0728C5 20.928 4.07193 19.9999 2.9271 19.9999H2.0729C0.92807 19.9999 0 19.0718 0 17.927V2.0729C0 0.928069 0.928072 0 2.07291 0H7.92711C9.07194 0 10 0.928072 10 2.07291V17.927C10 19.0718 10.9281 19.9999 12.0729 19.9999H12.9271C14.0719 19.9999 15 19.0718 15 17.927V2.0729C15 0.928069 15.9281 0 17.0729 0H22.9271C24.072 0 25 0.928072 25 2.07291V17.927C25 19.0718 24.072 19.9999 22.9271 19.9999H22.0729C20.9281 19.9999 20 20.928 20 22.0728V22.927C20 24.0718 19.0719 24.9999 17.9271 24.9999H7.07291Z" fill="#102346"/>
</svg>
