<svg width="67" height="25" viewBox="0 0 67 25" fill="none" xmlns="http://www.w3.org/2000/svg">
<path d="M2.03026 24.4856C0.908976 24.4856 0 23.5766 0 22.4553V2.03026C0 0.90898 0.908979 0 2.03026 0H17.5583C18.6796 0 19.5886 0.908979 19.5886 2.03026V2.86685C19.5886 3.98814 20.4976 4.89712 21.6188 4.89712H22.4555C23.5767 4.89712 24.4857 5.80609 24.4857 6.92738V17.5582C24.4857 18.6795 23.5767 19.5885 22.4555 19.5885H21.6188C20.4976 19.5885 19.5886 20.4974 19.5886 21.6187V22.4553C19.5886 23.5766 18.6796 24.4856 17.5583 24.4856H2.03026ZM9.79429 17.5582C9.79429 18.6795 10.7033 19.5885 11.8246 19.5885H12.4653C13.5866 19.5885 14.4955 18.6795 14.4955 17.5582V6.92737C14.4955 5.80609 13.5866 4.89712 12.4653 4.89712H11.8246C10.7033 4.89712 9.79429 5.80609 9.79429 6.92738V17.5582Z" fill="#102346"/>
<rect x="30.0321" y="16.1649" width="6.93401" height="8.32076" rx="3" fill="#102346"/>
<path d="M49.4417 24.4856C48.3204 24.4856 47.4114 23.5766 47.4114 22.4553V21.6187C47.4114 20.4974 46.5025 19.5885 45.3812 19.5885H44.5446C43.4233 19.5885 42.5143 18.6795 42.5143 17.5582V2.03026C42.5143 0.908977 43.4233 0 44.5446 0H50.2783C51.3996 0 52.3086 0.908979 52.3086 2.03026V17.5582C52.3086 18.6795 53.2176 19.5885 54.3389 19.5885H55.1755C56.2968 19.5885 57.2057 18.6795 57.2057 17.5582V2.03026C57.2057 0.908977 58.1147 0 59.236 0H64.9698C66.0911 0 67 0.908979 67 2.03026V17.5582C67 18.6795 66.091 19.5885 64.9698 19.5885H64.1331C63.0119 19.5885 62.1029 20.4974 62.1029 21.6187V22.4553C62.1029 23.5766 61.1939 24.4856 60.0726 24.4856H49.4417Z" fill="#102346"/>
</svg>
