<svg width="42" height="42" viewBox="0 0 42 42" fill="none" xmlns="http://www.w3.org/2000/svg">
<rect width="42" height="42" rx="21" fill="#002B7E" fill-opacity="0.03"/>
<g clip-path="url(#clip0_1307_23451)">
<path d="M24.3333 28.5V26.8333C24.3333 25.9493 23.9821 25.1014 23.3569 24.4763C22.7318 23.8512 21.884 23.5 20.9999 23.5H15.1666C14.2825 23.5 13.4347 23.8512 12.8096 24.4763C12.1844 25.1014 11.8333 25.9493 11.8333 26.8333V28.5M27.6666 17.6667V22.6667M30.1666 20.1667H25.1666M21.4166 16.8333C21.4166 18.6743 19.9242 20.1667 18.0833 20.1667C16.2423 20.1667 14.7499 18.6743 14.7499 16.8333C14.7499 14.9924 16.2423 13.5 18.0833 13.5C19.9242 13.5 21.4166 14.9924 21.4166 16.8333Z" stroke="#021B4D" stroke-opacity="0.48" stroke-width="1.5" stroke-linecap="round" stroke-linejoin="round"/>
</g>
<defs>
<clipPath id="clip0_1307_23451">
<rect width="20" height="20" fill="white" transform="translate(11 11)"/>
</clipPath>
</defs>
</svg>
