<svg width="42" height="42" viewBox="0 0 42 42" fill="none" xmlns="http://www.w3.org/2000/svg">
<rect width="42" height="42" rx="21" fill="#002B7E" fill-opacity="0.03"/>
<g clip-path="url(#clip0_1307_23447)">
<path d="M23.4999 16.8334H25.9999C26.5471 16.8334 27.0889 16.9411 27.5944 17.1505C28.1 17.3599 28.5593 17.6669 28.9462 18.0538C29.3331 18.4407 29.64 18.9 29.8494 19.4055C30.0588 19.911 30.1666 20.4529 30.1666 21C30.1666 21.5472 30.0588 22.089 29.8494 22.5946C29.64 23.1001 29.3331 23.5594 28.9462 23.9463C28.5593 24.3332 28.1 24.6401 27.5944 24.8495C27.0889 25.0589 26.5471 25.1667 25.9999 25.1667H23.4999M18.4999 25.1667H15.9999C15.4527 25.1667 14.9109 25.0589 14.4054 24.8495C13.8999 24.6401 13.4406 24.3332 13.0536 23.9463C12.2722 23.1649 11.8333 22.1051 11.8333 21C11.8333 19.895 12.2722 18.8352 13.0536 18.0538C13.835 17.2724 14.8949 16.8334 15.9999 16.8334H18.4999M17.6666 21H24.3333" stroke="#021B4D" stroke-opacity="0.48" stroke-width="1.5" stroke-linecap="round" stroke-linejoin="round"/>
</g>
<defs>
<clipPath id="clip0_1307_23447">
<rect width="20" height="20" fill="white" transform="translate(11 11)"/>
</clipPath>
</defs>
</svg>
