<svg width="15" height="11" viewBox="0 0 15 11" fill="none" xmlns="http://www.w3.org/2000/svg">
<path d="M4.95862 7.78463C4.95862 8.06077 5.18248 8.28463 5.45862 8.28463C5.73477 8.28463 5.95862 8.06077 5.95862 7.78463H4.95862ZM5.95862 6.739C5.95862 6.46286 5.73477 6.239 5.45862 6.239C5.18248 6.239 4.95862 6.46286 4.95862 6.739H5.95862ZM4.96027 3.61972C4.70614 3.72775 4.58769 4.02134 4.69572 4.27548C4.80375 4.52961 5.09735 4.64805 5.35148 4.54003L4.96027 3.61972ZM9.64852 4.54003C9.90265 4.64805 10.1962 4.52961 10.3043 4.27548C10.4123 4.02134 10.2939 3.72775 10.0397 3.61972L9.64852 4.54003ZM5.3515 4.54002C5.60563 4.43197 5.72406 4.13838 5.61602 3.88425C5.50797 3.63012 5.21438 3.51169 4.96025 3.61973L5.3515 4.54002ZM3.16875 5.43962L2.8107 5.09063L2.81065 5.09067L3.16875 5.43962ZM1.84138 7.47487L2.30496 7.6622L2.30508 7.6619L1.84138 7.47487ZM1.375 9.875L0.875 9.87509C0.875049 10.1512 1.09889 10.375 1.375 10.375V9.875ZM13.625 9.875V10.375C13.9011 10.375 14.125 10.1512 14.125 9.87509L13.625 9.875ZM13.1586 7.47487L12.6949 7.6619L12.695 7.6622L13.1586 7.47487ZM11.8313 5.43962L12.1893 5.09067L12.1893 5.09063L11.8313 5.43962ZM10.0398 3.61973C9.78562 3.51169 9.49203 3.63012 9.38398 3.88425C9.27594 4.13838 9.39437 4.43197 9.6485 4.54002L10.0398 3.61973ZM4.75287 4.37583C4.91633 4.5984 5.22926 4.64633 5.45183 4.48288C5.6744 4.31942 5.72233 4.00649 5.55888 3.78392L4.75287 4.37583ZM3.38888 0.829044C3.22542 0.606473 2.91249 0.558547 2.68992 0.721999C2.46735 0.885451 2.41942 1.19838 2.58287 1.42096L3.38888 0.829044ZM9.04138 7.78463C9.04138 8.06077 9.26523 8.28463 9.54138 8.28463C9.81752 8.28463 10.0414 8.06077 10.0414 7.78463H9.04138ZM10.0414 6.739C10.0414 6.46286 9.81752 6.239 9.54138 6.239C9.26523 6.239 9.04138 6.46286 9.04138 6.739H10.0414ZM9.44031 3.78384C9.27681 4.00638 9.32468 4.31932 9.54722 4.48282C9.76976 4.64631 10.0827 4.59845 10.2462 4.37591L9.44031 3.78384ZM12.4171 1.42103C12.5806 1.19849 12.5327 0.88555 12.3102 0.722056C12.0876 0.558561 11.7747 0.606426 11.6112 0.828966L12.4171 1.42103ZM5.45862 7.78463H5.95862V6.739H5.45862H4.95862V7.78463H5.45862ZM5.15588 4.07987L5.35148 4.54003C6.72438 3.95642 8.27562 3.95642 9.64852 4.54003L9.84412 4.07987L10.0397 3.61972C8.41685 2.92986 6.58315 2.92986 4.96027 3.61972L5.15588 4.07987ZM5.15588 4.07987L4.96025 3.61973C4.15336 3.96278 3.42269 4.46276 2.8107 5.09063L3.16875 5.43962L3.5268 5.78862C4.04631 5.25564 4.66655 4.83122 5.3515 4.54002L5.15588 4.07987ZM3.16875 5.43962L2.81065 5.09067C2.1946 5.72287 1.70784 6.46921 1.37767 7.28786L1.84138 7.47487L2.30508 7.6619C2.58659 6.96392 3.0016 6.32759 3.52684 5.78858L3.16875 5.43962ZM1.84138 7.47487L1.37779 7.28755C1.04555 8.10976 0.874842 8.98829 0.875 9.87509L1.375 9.875L1.875 9.87491C1.87487 9.11657 2.02085 8.36531 2.30496 7.6622L1.84138 7.47487ZM1.375 9.875V10.375H13.625V9.875V9.375H1.375V9.875ZM13.625 9.875L14.125 9.87509C14.1252 8.98829 13.9544 8.10976 13.6222 7.28755L13.1586 7.47487L12.695 7.6622C12.9792 8.36531 13.1251 9.11657 13.125 9.87491L13.625 9.875ZM13.1586 7.47487L13.6223 7.28785C13.2922 6.46921 12.8054 5.72287 12.1893 5.09067L11.8313 5.43962L11.4732 5.78858C11.9984 6.32759 12.4134 6.96392 12.6949 7.6619L13.1586 7.47487ZM11.8313 5.43962L12.1893 5.09063C11.5773 4.46276 10.8466 3.96278 10.0398 3.61973L9.84412 4.07987L9.6485 4.54002C10.3334 4.83122 10.9537 5.25564 11.4732 5.78862L11.8313 5.43962ZM5.15588 4.07987L5.55888 3.78392L3.38888 0.829044L2.98588 1.125L2.58287 1.42096L4.75287 4.37583L5.15588 4.07987ZM9.54138 7.78463H10.0414V6.739H9.54138H9.04138V7.78463H9.54138ZM9.84325 4.07987L10.2462 4.37591L12.4171 1.42103L12.0141 1.125L11.6112 0.828966L9.44031 3.78384L9.84325 4.07987Z" fill="url(#paint0_linear_377_2252)"/>
<defs>
<linearGradient id="paint0_linear_377_2252" x1="1.83437" y1="5.05128" x2="12.9359" y2="5.05128" gradientUnits="userSpaceOnUse">
<stop stop-color="#A62DF2"/>
<stop offset="0.475962" stop-color="#9433E3"/>
<stop offset="1" stop-color="#7919DF"/>
</linearGradient>
</defs>
</svg>
