<svg width="864" height="318" viewBox="0 0 864 318" fill="none" xmlns="http://www.w3.org/2000/svg">
<g clip-path="url(#clip0_1926_61307)">
<path d="M17.8991 316.031C8.0137 316.031 0 308.017 0 298.132V17.8991C0 8.0137 8.0137 0 17.8991 0H234.926C244.811 0 252.825 8.0137 252.825 17.8991V45.3071C252.825 55.1925 260.838 63.2062 270.724 63.2062H298.132C308.017 63.2062 316.031 71.2199 316.031 81.1053V234.926C316.031 244.811 308.017 252.825 298.132 252.825H270.724C260.838 252.825 252.825 260.838 252.825 270.724V298.132C252.825 308.017 244.811 316.031 234.926 316.031H17.8991ZM126.412 234.926C126.412 244.811 134.426 252.825 144.311 252.825H169.191C179.077 252.825 187.09 244.811 187.09 234.926V81.1053C187.09 71.2199 179.077 63.2062 169.191 63.2062H144.311C134.426 63.2062 126.412 71.2199 126.412 81.1053V234.926Z" fill="white"/>
<path d="M389.305 255.062C389.305 230.349 409.339 210.314 434.052 210.314C458.766 210.314 478.8 230.349 478.8 255.062V272.961C478.8 297.675 458.766 317.709 434.052 317.709C409.339 317.709 389.305 297.675 389.305 272.961V255.062Z" fill="white"/>
<path d="M629.824 316.031C619.939 316.031 611.925 308.017 611.925 298.132V270.724C611.925 260.838 603.911 252.825 594.026 252.825H566.618C556.732 252.825 548.719 244.811 548.719 234.926V17.8991C548.719 8.01371 556.732 0 566.618 0H657.232C667.117 0 675.131 8.0137 675.131 17.8991V234.926C675.131 244.811 683.145 252.825 693.03 252.825H720.438C730.324 252.825 738.337 244.811 738.337 234.926V17.8991C738.337 8.01371 746.351 0 756.236 0H846.851C856.736 0 864.75 8.0137 864.75 17.8991V234.926C864.75 244.811 856.736 252.825 846.851 252.825H819.443C809.557 252.825 801.543 260.838 801.543 270.724V298.132C801.543 308.017 793.53 316.031 783.644 316.031H629.824Z" fill="white"/>
</g>
<defs>
<clipPath id="clip0_1926_61307">
<rect width="864" height="318" fill="white"/>
</clipPath>
</defs>
</svg>
